<svg xmlns="http://www.w3.org/2000/svg" version="1.0" viewBox="0 0 320 320" width="320px" height="320px">
  <rect fill="#fff" width="320" height="320" />
  <path d="M4.4 40.5c2.2 33-6 48.7-28.3 54l-7.6 1.7v23.7c25 6.8 49 13.8 63.5 18.1l6 2.3-9.5 3a69.8 69.8 0 0 0-32.7 19c-8.3 8-14.2 16.3-14.2 19.6 0 .6 3 3.5 6.6 6.5a54.3 54.3 0 0 0 32.4 11.4l9.4.7 2.3 13.4c4.5 27.4 9.1 38.4 27.4 66.1 6.4 9.6 15 22.6 18.8 28.7 5 7.7 8 11.3 9.2 11.3 1.8 0-6.2-13.1-29-47.5a139 139 0 0 1-23-57.8c-2-10.4-2.6-16.6-1.6-15.5.3.2 1.4 5.4 2.5 11.4 2 11 4.7 21.8 8.4 32.4a58.7 58.7 0 0 0 19 27.1c7.2 6.3 24.5 18.4 29.7 21 5.2 2.3 12.7 15.3 13.5 23.4.4 3.8 1 5.4 2 5.4 2 0 1-5.9-2.2-15.1l-2.4-6.7 7.7 3.8c10.2 5 13.3 5.6 15.6 3.1 2.4-2.6 2.3-12.7-.2-20.1a65.8 65.8 0 0 0-15.6-23.4c-4.4-3.6-21-13.6-22.6-13.6-.6 0-4-3.5-4-3.7 0 0 3.5-.6 5.3-1.3a61 61 0 0 0 27-16.4c11-10.7 7.5-13.6-17.8-14.5-13.8-.6-16.5-1-19.5-2.8a61 61 0 0 0-9-3.8c-4.4-1.4-6.6-3-11.2-7.8l-5.7-6.2 2.1-2.2c1.2-1.3 2-2.6 1.6-3-.6-.4-3.9 1.2-17.3 8-3.4 1.8-5.8 2-16.5 2-13 0-17.5-.8-27.5-5.3-5.3-2.4-11.5-8-11.5-10.6 0-2.6 4.8-10 9.3-14.5 9-8.8 20.3-15.2 35.2-19.7 20.5-6 22.4-6.3 33.2-5.1 11.3 1.4 11 1.2 18.4 13.7 4.7 8 5 8.3 3.3 10.7-2.6 4-1.4 12 3 20.8 2.4 5 4.3 7.7 5.8 8 1.3.5 6.4 2 12 2.3l10.4-.3 4-3.4c4.6-4.2 6.5-8.5 7.3-16.8l.6-6.4 9-5c5-2.5 12.5-6 16.8-7.2l7.8-2.5 3.7 2.3a49 49 0 0 0 5.4 3c2.4 1 4-2 2.7-5-.4-.9-.6-1.8-.7-2.8.2-.2 5.5-2 12-4l11.6-3.8 11.4 2.3c7.3 1.4 16.8 2.4 27 2.7l15.5.6 2.1 4.7c1.2 2.7 3 8.4 4 12.7 9.3 36 0 72-24 93.8-11 9.7-27.8 21.8-41.7 22.5-5.3 0-11 2.6-12.3 5.6-1.2 2.5-1 3.2 3.5 16.4 1 2.5 2 6.6 2.8 9.2.6 2.7 1.6 4.8 2 4.8 1.5 0 0-7.3-3.2-16.7-4.9-13.8-4-15.3 9.6-17.3 11.4-1.7 23.3-8 36.8-19.5a87 87 0 0 0 22.8-29c11.5-23.6 12.7-48.4 3.8-77.3l-2.9-9.7c14.5-2.5 30.9-4.4 45.7-9 15.5-5 34.6-15.6 43.6-24 3.3-3.2 3.6-7 .5-8-1.2-.4-11.4-.5-22.7 0-17.2.5-21.6.3-26.5-1-7-2-15.7-6.3-24.2-12.5-9.3-6.7-29.7-25-28.7-26a89 89 0 0 1 22.3-5c11.4-.4 14.3-3.4 6.3-6.7a300 300 0 0 0-57-16c-4-.3-6.3-1-6.3-1.8 0-1.2 1.3-6.2 7-27.3L216.2 0C181-.1 137.5.2 106.6 0a38 38 0 0 0 2.6 20.3c1.3 2 10.2 0 15.8-3.7 6.1-4 7.5-4.3 11-2 3.7 1.7 1.5 3.4 0 6.5-3 6-3 6 .1 11 2.4 3.9 2.5 4.2.8 6-3.5 3.9-6.7 3.4-13.2-2.2-3.8-3.2-6.7-3-11.3-3 1.6 6.8 2 15-1.3 20-3 4.5-9.7 8.9-15 9.8-9.4-.4-14.4-4.3-20.6-10-2 4.5-2.8 9.5-2.3 14.5.5 7 .4 7.6-1.8 9.2-3.4 2.3-4 2.1-7.8-3.4-3.3-5-3.4-5-8.8-5-4.6.2-9-3.2-7.4-7.3.4-.4 3.6-2.2 7.2-4.1 4.1-2.1 7.6-5 9.7-7.6l3.3-4.3-6.3-5.7c-8-7.3-13-6.8-21-1.6a40 40 0 0 1-8 4c-2.2.7-2.7.3-3.6-2.2-.8-2.4-.6-4 1.2-7.7l2.2-4.8-2.3-4.6c-3-6-3-6.8.8-8.6 3.1-1.6 3.1-1.6 9.5 3.3 8.5 6.5 11 6.3 12-1.3.6-5.5 3.2-10 4.4-15.5h-52c-1.7 14.2-1 28.4 0 40.5zm197.8 14.7l-8.3 8-10.5 1.4c-14.7 1.7-30 2.8-30 2A348 348 0 0 1 199 48.4c3.3-1 6.4-2 7-2.5 1.4-.4 4.5-1.1 4.5 0a83.7 83.7 0 0 1-8.3 9.3zm28.2-5.6c15.6 3.8 36 10.7 33 11.2-1.4.2-8 1.7-15 3.4l-12.5 3c-6.4-1.3-13.8-2-19.2-4.5-.5-.7-.7-4.6-.5-8.8.3-6.6.6-7.6 2-7.3zm-17 4c-.3 6.5-1.4 9.9-3.3 10.2-2.5.5-5.7-2.6-5.7-5.4 0-2.1 6-8.4 8-8.4 1 1 1 2.8 1 3.6zM211 67.5l-1.5 6.2c-1.3 5.5-1.8 6.3-3.8 6.3-5.7 0-9.8-3.5-11-9.6-.4-2.3 0-3.6 2.7-6.4l3.2-3.4c2.5 4 6.7 6 10.4 6.9zm-23.7 4.3c-7.2 8.8-16 20.4-16 21 0 .6 1.4 2.8 3 5 6 8.4 21 13 25.7 7.9 3-3 7.6-15.3 11-28a79 79 0 0 1 3.3-11c1.2-1.4 20.3 3.3 24.3 6 2 1.5 7.2 6 11.5 10A145 145 0 0 0 284 107c11 7 20.8 4.6 33.7 4.8 27.3.3 28 .5 21.5 5.8-19 15.8-45 25.2-81.3 29.5-14.4 1.7-38 .6-53.6-2.4-25.2-5-31-7.2-42.2-15.7a152 152 0 0 0-36.8-18.2 71 71 0 0 0-26-3.7l-16.9-.6L90 101c30.7-22 51.6-31.5 70-32 3.3 0 11.4-1.4 17.2-2 13.8-2 14-1.2 14-.6-1.2 1.7-2.6 4-3.9 5.4zM203 82.5c3.3.7 3.5 1 2.8 3.8-.3 1.7-1.2 4.7-2 6.7-1.4 4-2.8 4.2-9.8 1-4.7-2.3-7.3-6-8.3-12.6-.5-2.9 0-4 2.2-6.4 2.2-2.3 3.2-2.7 4.2-2 2.5 4.3 6 8.6 10.9 9.5zm-18.6 4.4c1.2 4.6 5.2 8.2 11.5 10.6 5 2 5.3 3 3 6.4-1.5 2-2.4 2.3-6 2-6.3-1-12-4-16.4-8.9l-3-4 4-5c1.3-2 3-3.6 4.8-5 1 1.2 1.8 3 2 4zM125 113.4a187 187 0 0 1 16.8 7c7 3.1 9.4 4.8 11.7 8 1.5 2.3 4.6 6.3 7 9.1 4.2 5 10.4 16.8 9.8 18.6-.2.5-3.7-1.2-7.8-3.7a147.3 147.3 0 0 0-32.9-15c-8-2.5-10.2-2.7-27.2-2.8l-18.5-.1-3.3 2.8c-3.3 2.7-3.6 2.8-10.5 2-9-1-21.3-1-24.8 0-4 1-3.4-.6 1.4-4a45 45 0 0 0 6.7-5.6c1.3-1.5 7.1-6.6 13-11.3l10.6-8.6 20 .4c18.7.4 20.5.6 28 3.2zm42 21.1a53 53 0 0 0 8 4.2l5 2.1-3.6 1.5c-7 2.9-7.7 3-9 .5-.6-1.3-1.9-3.2-2.9-4.3a36 36 0 0 1-3.6-5l-1.8-2.8 2.4.8c1.4.4 4 1.8 5.5 3zm-36.5 5.8c4.1 1.4 11.1 4.2 15.5 6.2l8 3.8-13.2 6.3-13.2 6.4-3.6-2.5a38 38 0 0 0-7.4-3.5c-6.2-2-17.4-2.4-21.5-1-3.5 1-4 1-5.4-1.1a63 63 0 0 1-8.2-14.5c0-2.8 4.4-3.4 23-3 16.6.3 19.3.6 26 3zM57 198.6c5 5.8 11.3 10.4 14 10.4 1 0 4.6 1.4 8.2 3.2 6.2 3 7.3 3.2 20.2 3.5 17.4.5 20.1 1 20.1 3.1 0 2.5-9.4 12.8-14.3 15.6-5.8 3.2-12 5.5-18.5 7-2.9.5-4.3 0-10-4C60 225.4 55 219 49.5 202.5c-2.2-6.7-2.2-7-.4-8.3 1-.7 2-1.3 2.3-1.3.4 0 2.8 2.5 5.6 5.6zm-11 4c1 3.3 3.2 9 5 13 2.8 5.8 4.8 8.3 10.7 13.3 4 3.5 10 8 13 10s6 4.3 6.3 5.1c.3.8 4.2 3.5 8.8 5.9 20 10.7 27.1 17.1 33.4 29.9 5.3 10.6 6.1 25.2 1.4 25.2-2 0-17.6-8.2-24.5-12.9-2.2-1.5-6.3-4-9-5.6-15.4-8.6-33.3-23.7-38.2-32.1a174 174 0 0 1-14.4-48.8c-1.4-7.4-1-8.6 3.7-8.6 1.8 0 2.4 1 3.8 5.7z"/>
  <path d="M90.5 21.7C103.8 18.7 103 3 92 3c-12.8-1.4-11.3 19.4-1.5 18.7zm-22.7-7c-12.6 3.7-8 19 1 19.3 15.2-2 10.4-21.2-1-19.3zm16.2 23c4.4-1.3 7.4-3.5 11.7-6-3.6-1.8-7-4-10.7-5.7-.6 4-1.6 7.5-1 11.7zm142 119c-4.3 5.6-1.3 12.3 4.3 12.3 16.7-3 4.5-21.2-4.3-12.4zM44 174c-3 1.2-11 2.6-20.3 3.6-8.3 1-15 2-14.9 2.5.3 1 .2 1 9.5.3 16.2-1.5 29-4.5 32.7-7.8 1.5-1.3-1.6-.7-7 1.4zm178 2.3c-31 4.3-56.3 8.3-84 11.5l-8.2 1c-.2 0-.3.7-.3 1.6 0 1.2.7 1.4 2.8 1 8.3-.5 17.3-2.8 24.7-3.5 5.5-.5 16-2 23-3 15.6-2.6 23.2-3.7 34.5-5 10-1.3 12.2-1.9 11.5-3-.6-1-2-1-4-.6zm84.5 34.7a27 27 0 0 0-18.2 14.2c-6.3 12.5-6.3 12.3-5.5 41 .2 3.7-.4 7.2-.5 7.2-1.6 7.6-9.4 4.8-15.8 4.5-17.6 0-26 13.6-31 21.5L223 320h72.3l.6-3.1c1.8-9.2 0-18.2-5-25.9-4.7-6.2-2.7-8.3.3-14.7 4-6.3 1.8-12.7 1-19.7-1.8-16.8-1.3-21.7 3.3-28.4 5.4-8 12.7-11.7 20.5-10.7 12.2 1.7 19.5 7.1 25.6 18.9a32 32 0 0 0 3.6 6.2c-1.8-11.4-8.2-23.5-18.2-28.8a38.4 38.4 0 0 0-20.5-2.6z"/>
  <path d="M246.1 286.5c-1 2.6-.7 3.2.5 1.2.6-1 1-2 .6-2.3-.2-.3-.7.2-1 1.1zm-4 4.7c.3.5 1 .6 1.5.3 1.3-.9 1-1.2-.6-1.2-.8 0-1.2.4-.9 1zM240 293c-.3.5-.3 1 .1 1 .3 0-.4.9-1.7 1.9-1.9 1.6-2 1.9-.6 1.7 2-.3 5-4.2 3.8-5.1-.5-.3-1.2-.1-1.6.5zm-3.9 7.2c.3.5 1 .6 1.5.3 1.3-.9 1-1.2-.6-1.2-.8 0-1.2.4-.9 1zm-2 1.7c-.4.5-.2 1.2.3 1.5.5.4 1.2.2 1.5-.3.4-.5.2-1.2-.3-1.5-.5-.4-1.2-.2-1.5.3zM232 305c-1 1.5.3 2.5 1.6 1.2.7-.7.7-1.3 0-1.7-.5-.3-1.3-.1-1.6.5zm-2 4.2c-1.5 1.2-1.6 1.5-.4 2.2.8.5 1 .5.7 0-.4-.4 0-1.4 1-2.1 2.3-1.8 1-1.8-1.3 0zm-2.2 4.2c0 .8.4 1.2 1 .9s.5-1 .2-1.5c-.9-1.3-1.2-1-1.2.6zm-2.5 3.6c-2 1.1-2.4 2.9-.6 2.9.6 0 .8-.3.5-.7-.4-.3.1-1.2 1.1-2 2-1.5 1.4-1.7-1-.2z"/>
</svg>
